<?xml version="1.0" standalone="no"?>
<!DOCTYPE svg PUBLIC "-//W3C//DTD SVG 20010904//EN"
 "http://www.w3.org/TR/2001/REC-SVG-20010904/DTD/svg10.dtd">
<svg version="1.0" xmlns="http://www.w3.org/2000/svg"
 width="170.000000pt" height="170.000000pt" viewBox="0 0 170.000000 170.000000"
 preserveAspectRatio="xMidYMid meet">

<g transform="translate(0.000000,170.000000) scale(0.100000,-0.100000)"
fill="#000000" stroke="none">
<path d="M695 1645 c-306 -57 -550 -280 -637 -582 -33 -112 -33 -324 0 -436
49 -172 147 -318 283 -423 462 -355 1130 -137 1291 422 33 114 33 324 0 438
-117 407 -522 658 -937 581z m397 -52 c331 -115 540 -405 540 -748 0 -342
-207 -630 -540 -749 -84 -30 -93 -31 -247 -31 -149 0 -166 2 -240 28 -127 45
-219 102 -315 197 -159 159 -233 335 -233 555 0 217 73 394 228 550 85 86 165
140 267 182 106 43 171 53 318 49 120 -2 145 -6 222 -33z"/>
<path d="M635 1326 c-65 -30 -112 -78 -143 -145 -82 -179 43 -382 244 -399 68
-5 120 8 176 44 21 13 40 24 44 24 8 0 -2 -102 -17 -177 -13 -64 -72 -158
-130 -205 -43 -36 -45 -36 -91 -26 -76 18 -114 -10 -92 -66 8 -21 75 -21 114
-1 26 13 35 12 111 -10 109 -33 218 -34 309 -2 41 15 66 29 68 40 4 22 -11 21
-77 -4 -86 -32 -162 -35 -259 -9 l-82 22 55 60 c90 97 110 146 125 311 10 99
13 113 45 159 19 28 35 58 35 68 0 18 -30 50 -47 50 -23 0 -45 -41 -50 -95 -6
-53 -9 -59 -54 -95 -139 -110 -344 -49 -404 119 -29 82 -10 168 52 240 53 62
104 85 188 85 73 0 117 -15 163 -58 l24 -21 -4 30 c-2 25 -12 35 -57 58 -73
36 -172 38 -246 3z m386 -339 c-8 -8 -11 -7 -11 4 0 20 13 34 18 19 3 -7 -1
-17 -7 -23z m-321 -587 c-20 -13 -40 -13 -40 0 0 6 12 10 28 10 21 0 24 -2 12
-10z"/>
</g>
</svg>
